<svg width="64" height="64" viewBox="0 0 64 64" fill="none" xmlns="http://www.w3.org/2000/svg">
<path d="M41.57 9.54001H8.20996C7.65768 9.54001 7.20996 9.98772 7.20996 10.54V20.18C7.20996 20.7323 7.65768 21.18 8.20996 21.18H41.57C42.1222 21.18 42.57 20.7323 42.57 20.18V10.54C42.57 9.98772 42.1222 9.54001 41.57 9.54001Z" fill="#ffffff" id="id_101"></path>
<path d="M15.27 25.34H9.72998C9.1777 25.34 8.72998 25.7877 8.72998 26.34V31.88C8.72998 32.4323 9.1777 32.88 9.72998 32.88H15.27C15.8223 32.88 16.27 32.4323 16.27 31.88V26.34C16.27 25.7877 15.8223 25.34 15.27 25.34Z" fill="#ffffff" id="id_102"></path>
<path d="M15.27 36.15H9.72998C9.1777 36.15 8.72998 36.5977 8.72998 37.15V42.69C8.72998 43.2423 9.1777 43.69 9.72998 43.69H15.27C15.8223 43.69 16.27 43.2423 16.27 42.69V37.15C16.27 36.5977 15.8223 36.15 15.27 36.15Z" fill="#ffffff" id="id_103"></path>
<path d="M15.27 46.96H9.72998C9.1777 46.96 8.72998 47.4077 8.72998 47.96V53.5C8.72998 54.0523 9.1777 54.5 9.72998 54.5H15.27C15.8223 54.5 16.27 54.0523 16.27 53.5V47.96C16.27 47.4077 15.8223 46.96 15.27 46.96Z" fill="#ffffff" id="id_104"></path>
<path d="M27.66 46.96H22.12C21.5677 46.96 21.12 47.4077 21.12 47.96V53.5C21.12 54.0523 21.5677 54.5 22.12 54.5H27.66C28.2123 54.5 28.66 54.0523 28.66 53.5V47.96C28.66 47.4077 28.2123 46.96 27.66 46.96Z" fill="#ffffff" id="id_105"></path>
<path d="M59.71 53.42C59.6003 53.309 59.4834 53.2055 59.36 53.11L48.17 43.75C49.7024 41.2929 50.3962 38.405 50.1474 35.5199C49.8985 32.6349 48.7204 29.9084 46.79 27.75V8C46.79 6.67392 46.2632 5.40215 45.3255 4.46447C44.3879 3.52678 43.1161 3 41.79 3H8C6.67392 3 5.40215 3.52678 4.46447 4.46447C3.52678 5.40215 3 6.67392 3 8V56C3 57.3261 3.52678 58.5979 4.46447 59.5355C5.40215 60.4732 6.67392 61 8 61H41.79C43.1161 61 44.3879 60.4732 45.3255 59.5355C46.2632 58.5979 46.79 57.3261 46.79 56V51.8L53.1 59.35C57.15 64 63.89 58 59.71 53.42ZM48.19 36.68C48.1926 39.3341 47.2746 41.9069 45.5926 43.96C43.9106 46.0131 41.5687 47.4193 38.966 47.939C36.3633 48.4587 33.6609 48.0597 31.3194 46.8101C28.9779 45.5604 27.1423 43.5374 26.1254 41.0858C25.1084 38.6343 24.9731 35.906 25.7426 33.3659C26.512 30.8258 28.1385 28.6311 30.3449 27.1559C32.5512 25.6807 35.2009 25.0164 37.8422 25.2761C40.4836 25.5357 42.9532 26.7034 44.83 28.58C45.8975 29.6412 46.744 30.9034 47.3208 32.2937C47.8975 33.684 48.1929 35.1748 48.19 36.68ZM44.79 56C44.79 56.7956 44.4739 57.5587 43.9113 58.1213C43.3487 58.6839 42.5857 59 41.79 59H8C7.20435 59 6.44129 58.6839 5.87868 58.1213C5.31607 57.5587 5 56.7956 5 56V8C5 7.20435 5.31607 6.44129 5.87868 5.87868C6.44129 5.31607 7.20435 5 8 5H41.79C42.5857 5 43.3487 5.31607 43.9113 5.87868C44.4739 6.44129 44.79 7.20435 44.79 8V25.92C42.4487 24.1714 39.6022 23.2316 36.68 23.2425C33.7578 23.2533 30.9183 24.2141 28.59 25.98C28.5175 25.7921 28.3899 25.6304 28.224 25.5162C28.058 25.402 27.8614 25.3406 27.66 25.34H22.12C21.8548 25.34 21.6004 25.4454 21.4129 25.6329C21.2254 25.8204 21.12 26.0748 21.12 26.34V31.88C21.12 32.1452 21.2254 32.3996 21.4129 32.5871C21.6004 32.7746 21.8548 32.88 22.12 32.88H23.82C23.5102 33.9439 23.3355 35.0425 23.3 36.15H22.12C21.8548 36.15 21.6004 36.2554 21.4129 36.4429C21.2254 36.6304 21.12 36.8848 21.12 37.15V42.69C21.12 42.9552 21.2254 43.2096 21.4129 43.3971C21.6004 43.5846 21.8548 43.69 22.12 43.69H25.25C26.1657 45.1852 27.3677 46.4849 28.7868 47.5145C30.206 48.5441 31.8145 49.2834 33.52 49.69V53.5C33.52 53.7652 33.6254 54.0196 33.8129 54.2071C34.0004 54.3946 34.2548 54.5 34.52 54.5H40.05C40.3152 54.5 40.5696 54.3946 40.7571 54.2071C40.9446 54.0196 41.05 53.7652 41.05 53.5V49.41C41.9888 49.0866 42.8906 48.6642 43.74 48.15L44.74 49.41L44.79 56Z" fill="#ffffff" id="id_106"></path>
</svg>